<svg width="20" height="20" viewBox="0 0 20 20" fill="none" xmlns="http://www.w3.org/2000/svg">
<path d="M17.4784 12.963C16.976 14.3532 16.1274 15.5954 15.001 16.589C13.8747 17.5827 12.5024 18.2999 10.9951 18.6825C9.48794 19.0651 7.88821 19.1025 6.32548 18.7915C4.76275 18.4805 3.28093 17.83 2 16.8925C4.14489 17.0331 6.24655 16.5256 7.99925 15.4441C9.75195 14.3626 11.0643 12.7633 11.7453 10.879C12.4264 8.99472 12.4406 6.92363 11.786 4.96703C11.1313 3.01043 9.84195 1.27038 8.10542 0C9.68781 0.103368 11.2411 0.556093 12.6396 1.32152C14.0381 2.08696 15.2424 3.14358 16.1551 4.40585C17.0678 5.66812 17.6632 7.10056 17.8931 8.5872C18.123 10.0738 17.9809 11.5729 17.4784 12.963Z" fill="#121212"/>
</svg>
